<svg width="174" height="173" viewBox="0 0 174 173" fill="none" xmlns="http://www.w3.org/2000/svg"><path d="M64.1889 61.6027H64.5048C64.8207 49.3927 74.1789 39.242 86.0732 39.242C93.8428 39.242 99.3951 42.5709 102.25 47.1694C98.1285 48.9128 94.9545 53.0374 94.9545 58.1128C94.9545 64.9316 100.665 70.1649 107.642 70.1649C114.618 70.1649 120.329 64.2968 120.329 56.5273C120.329 43.3666 108.276 31.3115 92.2603 31.3115C76.2443 31.3115 64.031 44.1563 64.031 59.2214C64.031 59.8562 64.031 60.491 64.1889 61.5996M113.668 109.969L126.829 89.6705L67.199 64.1388L67.041 64.2968L113.665 109.969H113.668ZM130.477 96.4893C130.477 113.933 115.569 125.985 100.346 125.985C88.4515 125.985 79.7281 121.702 75.4485 115.834C80.8398 112.663 84.0139 107.272 84.0139 100.453C84.0139 90.3023 75.7674 82.056 64.8237 82.056C53.2483 82.056 44.2061 91.4109 44.2061 103.624C44.2061 123.449 62.9193 142.954 88.7674 142.954C114.615 142.954 130.95 122.656 130.95 99.6603C130.95 98.3907 130.95 97.5979 130.792 96.4893H130.477Z" fill="#fff"/>
</svg>